<?xml version="1.0" encoding="UTF-8"?><svg id="b" xmlns="http://www.w3.org/2000/svg" width="301.89" height="273.42" viewBox="0 0 301.89 273.42"><g id="c"><polygon points="37.82 188.33 37.82 197.58 37.82 198.22 11.17 198.22 11.17 207.68 34.38 207.68 34.38 217.57 11.17 217.57 11.17 227.89 37.82 227.89 37.82 237.78 .64 237.78 0 237.78 0 188.33 37.82 188.33" fill="#fff"/><polygon points="301.89 188.33 301.89 197.58 301.89 198.22 275.25 198.22 275.25 207.68 298.46 207.68 298.46 217.57 275.25 217.57 275.25 227.89 301.89 227.89 301.89 237.78 264.72 237.78 264.07 237.78 264.07 188.33 301.89 188.33" fill="#fff"/><path d="M229.22,188.33v9.89h-15.61v39.56h-10.74v-39.56h-15.04v-9.89h41.26" fill="#fff"/><polygon points="83.81 227.89 108.74 227.89 108.74 237.78 108.09 237.78 73.28 237.78 72.64 237.78 72.64 188.33 83.81 188.33 83.81 227.89" fill="#fff"/><rect x="142.69" y="188.33" width="10.74" height="49.45" fill="#fff"/><path d="M1.1,255.86h7.42c1.07,0,2.02.15,2.85.46.83.3,1.52.73,2.06,1.27.43.43.76.93.99,1.5.23.58.35,1.21.35,1.9v.05c0,.72-.12,1.37-.35,1.94-.23.57-.55,1.06-.97,1.48-.42.42-.92.76-1.49,1.04-.58.27-1.2.46-1.87.58l5.3,7.05h-2.39l-5.01-6.71H3.05v6.71h-1.95v-17.26ZM8.36,264.66c.64,0,1.24-.08,1.78-.25.54-.16,1.01-.4,1.41-.7.4-.3.7-.67.93-1.11.22-.44.33-.93.33-1.49v-.05c0-1.07-.39-1.9-1.16-2.5-.77-.6-1.86-.9-3.26-.9H3.05v7h5.32Z" fill="#fff"/><path d="M18.93,255.86h12.48v1.75h-10.53v5.94h9.42v1.75h-9.42v6.07h10.65v1.75h-12.6v-17.26Z" fill="#fff"/><path d="M43.34,273.42c-1.25,0-2.4-.23-3.45-.69-1.05-.46-1.96-1.09-2.74-1.89-.77-.8-1.38-1.74-1.81-2.82-.44-1.08-.65-2.24-.65-3.48v-.05c0-1.22.22-2.37.65-3.45.44-1.09,1.04-2.03,1.81-2.85.77-.81,1.69-1.45,2.76-1.92,1.07-.47,2.24-.7,3.5-.7.79,0,1.5.07,2.13.2.63.13,1.22.32,1.76.55.54.24,1.04.53,1.5.86.46.34.9.71,1.33,1.12l-1.33,1.43c-.74-.69-1.53-1.26-2.38-1.7-.85-.44-1.86-.67-3.05-.67-.95,0-1.84.18-2.65.54-.81.36-1.52.86-2.12,1.5-.6.64-1.07,1.39-1.41,2.26-.34.86-.51,1.79-.51,2.77v.05c0,1,.17,1.94.51,2.8.34.86.81,1.62,1.41,2.26.6.64,1.31,1.15,2.12,1.52.81.37,1.7.55,2.65.55,1.18,0,2.2-.22,3.06-.65.85-.44,1.69-1.05,2.52-1.84l1.28,1.26c-.44.46-.91.88-1.39,1.25-.49.37-1.01.69-1.57.95-.56.26-1.16.47-1.8.62-.64.15-1.36.22-2.15.22Z" fill="#fff"/><path d="M61.66,273.42c-1.32,0-2.51-.24-3.59-.72-1.08-.48-2-1.12-2.77-1.94-.77-.81-1.37-1.76-1.79-2.84-.42-1.08-.63-2.21-.63-3.39v-.05c0-1.18.21-2.32.64-3.4.43-1.08,1.03-2.03,1.8-2.85.77-.81,1.7-1.46,2.79-1.95,1.09-.48,2.28-.73,3.6-.73s2.51.24,3.59.72c1.08.48,2,1.12,2.77,1.94.77.81,1.37,1.76,1.79,2.84.42,1.08.63,2.21.63,3.39.02.02.02.03,0,.05,0,1.18-.21,2.32-.64,3.4-.43,1.09-1.03,2.03-1.8,2.85-.77.81-1.7,1.46-2.79,1.95-1.09.48-2.29.73-3.6.73ZM61.71,271.62c.99,0,1.89-.18,2.72-.55.83-.37,1.54-.88,2.13-1.52.59-.64,1.06-1.39,1.39-2.24.34-.85.51-1.78.51-2.76v-.05c0-.99-.17-1.91-.51-2.77-.34-.86-.81-1.62-1.42-2.26-.61-.64-1.33-1.15-2.16-1.53-.83-.38-1.74-.57-2.72-.57s-1.89.18-2.72.55c-.83.37-1.54.88-2.13,1.52s-1.06,1.39-1.39,2.24c-.34.86-.51,1.78-.51,2.76v.05c0,.99.17,1.91.51,2.77.34.86.81,1.62,1.42,2.26.61.64,1.33,1.15,2.16,1.53.83.38,1.74.57,2.72.57Z" fill="#fff"/><path d="M73.13,255.86h2.17l6.14,14.87,6.16-14.87h2.1l-7.42,17.39h-1.73l-7.42-17.39Z" fill="#fff"/><path d="M93.11,255.86h12.48v1.75h-10.53v5.94h9.42v1.75h-9.42v6.07h10.65v1.75h-12.6v-17.26Z" fill="#fff"/><path d="M109.63,255.86h7.42c1.07,0,2.02.15,2.85.46.83.3,1.52.73,2.06,1.27.43.43.76.93.99,1.5.23.58.35,1.21.35,1.9v.05c0,.72-.12,1.37-.35,1.94-.23.57-.55,1.06-.97,1.48-.42.42-.92.76-1.49,1.04-.58.27-1.2.46-1.87.58l5.3,7.05h-2.39l-5.01-6.71h-4.93v6.71h-1.95v-17.26ZM116.89,264.66c.64,0,1.24-.08,1.78-.25.54-.16,1.01-.4,1.41-.7.4-.3.7-.67.93-1.11.22-.44.33-.93.33-1.49v-.05c0-1.07-.39-1.9-1.16-2.5-.77-.6-1.86-.9-3.26-.9h-5.34v7h5.32Z" fill="#fff"/><path d="M132.86,266.29l-7.18-10.43h2.37l5.81,8.63,5.86-8.63h2.27l-7.18,10.41v6.86h-1.95v-6.83Z" fill="#fff"/><path d="M160.52,273.42c-1.36,0-2.59-.23-3.66-.69-1.08-.46-2-1.09-2.76-1.9-.76-.81-1.35-1.75-1.75-2.82-.4-1.08-.6-2.23-.6-3.46v-.05c0-1.18.21-2.31.63-3.39.42-1.08,1.01-2.03,1.76-2.85.76-.82,1.66-1.48,2.72-1.96,1.06-.48,2.24-.73,3.54-.73.72,0,1.38.05,1.99.15.6.1,1.16.25,1.68.44s1,.44,1.45.73c.45.29.89.61,1.32.97l-1.26,1.48c-.33-.3-.67-.56-1.04-.8-.36-.24-.75-.44-1.17-.62-.42-.17-.88-.31-1.38-.41-.5-.1-1.06-.15-1.66-.15-.95,0-1.83.19-2.64.57-.81.38-1.5.89-2.07,1.53-.58.64-1.03,1.39-1.36,2.26-.33.86-.49,1.77-.49,2.73v.05c0,1.04.16,1.99.48,2.86.32.87.78,1.63,1.37,2.27.59.64,1.31,1.14,2.15,1.5.84.36,1.78.54,2.84.54.99,0,1.92-.17,2.79-.51.87-.34,1.6-.74,2.19-1.22v-4.29h-5.25v-1.75h7.13v6.88c-.81.72-1.8,1.34-2.97,1.86-1.18.52-2.49.78-3.96.78Z" fill="#fff"/><path d="M171.84,255.86h7.42c1.07,0,2.02.15,2.85.46.83.3,1.52.73,2.06,1.27.43.43.76.93.99,1.5.23.58.35,1.21.35,1.9v.05c0,.72-.12,1.37-.35,1.94-.23.57-.55,1.06-.97,1.48-.42.42-.92.76-1.49,1.04-.58.27-1.2.46-1.87.58l5.3,7.05h-2.39l-5.01-6.71h-4.93v6.71h-1.95v-17.26ZM179.11,264.66c.64,0,1.24-.08,1.78-.25.54-.16,1.01-.4,1.41-.7.4-.3.7-.67.93-1.11.22-.44.33-.93.33-1.49v-.05c0-1.07-.39-1.9-1.16-2.5-.77-.6-1.86-.9-3.26-.9h-5.34v7h5.32Z" fill="#fff"/><path d="M197.69,273.42c-1.32,0-2.51-.24-3.59-.72-1.08-.48-2-1.12-2.77-1.94-.77-.81-1.37-1.76-1.79-2.84-.42-1.08-.63-2.21-.63-3.39v-.05c0-1.18.21-2.32.64-3.4.43-1.08,1.03-2.03,1.8-2.85.77-.81,1.7-1.46,2.79-1.95,1.09-.48,2.28-.73,3.6-.73s2.51.24,3.59.72c1.08.48,2,1.12,2.77,1.94.77.81,1.37,1.76,1.79,2.84.42,1.08.63,2.21.63,3.39.02.02.02.03,0,.05,0,1.18-.21,2.32-.64,3.4-.43,1.09-1.03,2.03-1.8,2.85-.77.81-1.7,1.46-2.79,1.95-1.09.48-2.29.73-3.6.73ZM197.74,271.62c.99,0,1.89-.18,2.72-.55.83-.37,1.54-.88,2.13-1.52.59-.64,1.06-1.39,1.39-2.24.34-.85.51-1.78.51-2.76v-.05c0-.99-.17-1.91-.51-2.77-.34-.86-.81-1.62-1.42-2.26-.61-.64-1.33-1.15-2.16-1.53-.83-.38-1.74-.57-2.72-.57s-1.89.18-2.72.55c-.83.37-1.54.88-2.13,1.52s-1.06,1.39-1.39,2.24c-.34.86-.51,1.78-.51,2.76v.05c0,.99.17,1.91.51,2.77.34.86.81,1.62,1.42,2.26.61.64,1.33,1.15,2.16,1.53.83.38,1.74.57,2.72.57Z" fill="#fff"/><path d="M217.54,273.39c-1.07,0-2.04-.16-2.92-.48-.88-.32-1.64-.8-2.27-1.43-.63-.63-1.12-1.42-1.47-2.35-.35-.94-.52-2.01-.52-3.23v-10.04h1.95v9.91c0,1.87.46,3.31,1.39,4.32.93,1,2.22,1.5,3.88,1.5s2.86-.48,3.8-1.43c.94-.95,1.41-2.38,1.41-4.27v-10.04h1.95v9.89c0,1.27-.17,2.38-.52,3.33-.35.95-.83,1.75-1.47,2.39-.63.64-1.39,1.12-2.27,1.44-.88.32-1.86.48-2.95.48Z" fill="#fff"/><path d="M229.35,255.86h6.46c.97,0,1.85.13,2.65.38.8.26,1.48.62,2.05,1.09.57.47,1,1.04,1.31,1.71.3.67.46,1.44.46,2.29v.05c0,.94-.18,1.76-.54,2.45-.36.7-.85,1.29-1.47,1.76-.62.48-1.34.83-2.16,1.07-.82.24-1.69.36-2.61.36h-4.19v6.09h-1.95v-17.26ZM235.58,265.28c.71,0,1.36-.09,1.94-.27.58-.18,1.09-.44,1.51-.78.42-.34.74-.74.96-1.2.22-.46.33-.98.33-1.56v-.05c0-1.24-.42-2.17-1.27-2.81-.85-.63-1.97-.95-3.38-.95h-4.38v7.62h4.28Z" fill="#fff"/><path d="M253.22,255.86h1.95v15.46h9.72v1.8h-11.66v-17.26Z" fill="#fff"/><path d="M268.48,255.86h1.95v15.46h9.72v1.8h-11.66v-17.26Z" fill="#fff"/><path d="M291.64,273.42c-1.25,0-2.4-.23-3.45-.69-1.05-.46-1.96-1.09-2.74-1.89-.77-.8-1.38-1.74-1.81-2.82-.44-1.08-.65-2.24-.65-3.48v-.05c0-1.22.22-2.37.65-3.45.44-1.09,1.04-2.03,1.81-2.85.77-.81,1.69-1.45,2.76-1.92,1.07-.47,2.24-.7,3.5-.7.79,0,1.5.07,2.13.2.63.13,1.22.32,1.76.55.54.24,1.04.53,1.5.86.46.34.9.71,1.33,1.12l-1.33,1.43c-.74-.69-1.53-1.26-2.38-1.7-.85-.44-1.86-.67-3.05-.67-.95,0-1.84.18-2.65.54-.81.36-1.52.86-2.12,1.5-.6.64-1.07,1.39-1.41,2.26-.34.86-.51,1.79-.51,2.77v.05c0,1,.17,1.94.51,2.8.34.86.81,1.62,1.41,2.26.6.64,1.31,1.15,2.12,1.52.81.37,1.7.55,2.65.55,1.18,0,2.2-.22,3.06-.65.85-.44,1.69-1.05,2.52-1.84l1.28,1.26c-.44.46-.91.88-1.39,1.25-.49.37-1.01.69-1.57.95-.56.26-1.16.47-1.8.62-.64.15-1.36.22-2.15.22Z" fill="#fff"/><path d="M252.08,73.53h-14.81s-2.41-10.7-3.99-15.16C208.02-13.07,108.53-20.87,72.56,45.72c-.54,1.01-1.83,3.5-2.63,5.32h0s-.02.03-.03.06c-.13.31-.25.6-.35.86-.29.72-.67,1.69-.82,2.21l.68.86s0,0,0,0l9.66,12.13h0l1.58,2,.41-1.43c5.61-17.54,16.7-32.19,32.53-41.58,38.12-22.61,87.77-5.21,103.45,35.97,1.35,3.56,2.85,7.59,3,11.4h-13.45s23.48,28.9,23.48,28.9l23.52-28.92-1.52.02Z" fill="#fff"/><path d="M47.9,102.22h14.81s2.41,10.7,3.99,15.16c25.26,71.44,124.74,79.23,160.71,12.65.54-1.01,1.83-3.5,2.63-5.32h0s.02-.03.03-.06c.13-.31.25-.6.35-.86.29-.72.67-1.69.82-2.21l-.68-.86s0,0,0,0l-9.66-12.13h0l-1.58-2-.41,1.43c-5.61,17.54-16.7,32.19-32.53,41.58-38.12,22.61-87.77,5.21-103.45-35.97-1.35-3.56-2.85-7.59-3-11.4h11.82s1.63,0,1.63,0l-23.48-28.9-23.52,28.92,1.52-.02Z" fill="#fff"/><path d="M198.75,87.66c0-1.29-.07-2.56-.16-3.82-1.11-11.04-5.8-21.72-13.42-29.88-8.85-9.2-21.28-14.94-35.05-14.94-13.01,0-24.83,5.12-33.56,13.45-8.64,8.52-13.92,20.17-14.98,32.15-.06,1.01-.1,2.02-.1,3.05,0,17.68,9.43,33.15,23.53,41.66.17.04.34.08.5.1v-41.28h10.75v46.14c2.77.82,5.64,1.41,8.6,1.73v-58.19h10.74v58.16c2.35-.26,4.64-.69,6.88-1.27v-66.78h11.17v62.3c14.97-8.29,25.11-24.25,25.11-42.57Z" fill="#fff"/></g></svg>